<svg width="292" height="298" viewBox="0 0 292 298" fill="none" xmlns="http://www.w3.org/2000/svg">
<path d="M74.2803 209.751C74.2803 209.751 95.0803 286.181 100.09 297.461H180.77C166.84 261.001 152.1 213.301 151.68 209.981V209.751H74.2803Z" fill="#37474F"/>
<path d="M85.5503 219.921C86.0603 226.121 108.63 292.121 110.55 297.461H111.72C111.72 297.461 87.2103 224.461 85.8903 219.921C85.8503 219.731 85.5503 219.731 85.5503 219.921Z" fill="#263238"/>
<path d="M140.48 209.751L130.06 278.361L129.69 280.691L128.77 286.891L128.7 287.331L128.45 288.991L127.17 297.441H100.09C95.0903 286.161 74.2803 209.731 74.2803 209.731L140.48 209.751Z" fill="#263238"/>
<path d="M33.8304 297.461H110.16C110.16 297.131 110.21 296.881 110.22 296.661C110.23 296.441 110.27 296.151 110.27 296.151C110.69 295.911 111.12 295.681 111.55 295.451C116.04 293.011 119.98 291.101 123.22 289.661L124.82 288.941C126.29 288.311 127.61 287.771 128.7 287.341C131.51 286.231 133.07 285.731 133.07 285.731C133.17 285.501 133.25 285.271 133.33 285.041C144.39 256.891 151.06 213.981 151.68 209.981C151.675 209.881 151.675 209.781 151.68 209.681H42.6804C36.1904 229.981 26.4204 254.741 33.8304 297.461Z" fill="#37474F"/>
<path d="M136.97 283.721C127.727 287.082 118.793 291.241 110.27 296.151C109.93 296.341 110.15 296.861 110.51 296.701C119.51 292.841 128.68 289.141 137.45 284.791C137.575 284.718 137.669 284.6 137.713 284.462C137.757 284.324 137.748 284.174 137.689 284.042C137.63 283.909 137.523 283.803 137.391 283.744C137.258 283.685 137.109 283.677 136.97 283.721Z" fill="#263238"/>
<path d="M139.83 221.991C139.83 221.681 139.26 221.611 139.26 221.991C139.259 232.027 138.755 242.056 137.75 252.041C137.33 256.681 133.61 282.281 125.57 280.421C124.23 280.101 123.57 278.781 123.33 276.751C123.07 274.311 123.99 271.321 124.39 268.901C125.29 263.541 126 258.161 126.46 252.751C127.394 242.67 127.287 232.52 126.14 222.461C126.14 222.392 126.113 222.326 126.064 222.277C126.015 222.229 125.949 222.201 125.88 222.201C125.811 222.201 125.745 222.229 125.696 222.277C125.648 222.326 125.62 222.392 125.62 222.461C125.62 236.461 125.26 250.461 123.17 264.281C122.17 270.941 118.81 280.971 125.78 281.991C132.75 283.011 137.46 266.221 138.33 261.621C140.74 248.811 140.84 234.971 139.83 221.991Z" fill="#263238"/>
<path d="M125.78 281.071C125.064 282.796 124.463 284.567 123.98 286.371C123.461 287.769 123.206 289.251 123.23 290.741C123.24 290.801 123.268 290.857 123.31 290.901C123.353 290.944 123.407 290.974 123.467 290.986C123.527 290.998 123.589 290.991 123.645 290.967C123.7 290.943 123.748 290.903 123.78 290.851C124.613 289.544 125.243 288.117 125.65 286.621C126.26 284.981 126.91 283.351 127.47 281.691C127.552 281.467 127.542 281.22 127.442 281.003C127.341 280.786 127.159 280.618 126.935 280.536C126.711 280.454 126.463 280.464 126.247 280.565C126.03 280.665 125.862 280.847 125.78 281.071Z" fill="#263238"/>
<path d="M89.4304 230.371C89.4437 229.255 89.3296 228.141 89.0904 227.051C89.0813 227.014 89.0601 226.982 89.0301 226.958C89.0002 226.935 88.9634 226.922 88.9254 226.922C88.8874 226.922 88.8506 226.935 88.8207 226.958C88.7908 226.982 88.7695 227.014 88.7604 227.051C88.5316 227.995 88.4075 228.961 88.3904 229.931C88.2704 231.031 88.1304 232.131 88.0104 233.231C87.773 235.486 87.3787 237.721 86.8304 239.921C85.8127 244.072 83.6951 247.872 80.7004 250.921C77.72 253.857 74.1936 256.181 70.3204 257.761C66.0104 259.581 61.4704 260.261 57.0104 261.571C56.9732 261.585 56.9418 261.61 56.9216 261.644C56.9013 261.678 56.8935 261.718 56.8994 261.757C56.9053 261.796 56.9246 261.832 56.954 261.858C56.9834 261.884 57.021 261.9 57.0604 261.901C62.0044 261.894 66.9005 260.933 71.4804 259.071C75.5316 257.552 79.218 255.198 82.3004 252.161C85.4011 249.029 87.5835 245.107 88.6104 240.821C89.1221 238.619 89.4103 236.371 89.4704 234.111C89.5362 232.865 89.5229 231.616 89.4304 230.371Z" fill="#263238"/>
<path d="M44.5503 297.461C42.2423 290.862 40.8002 283.991 40.2603 277.021C39.6599 270.036 39.6164 263.014 40.1303 256.021C40.5003 252.541 40.7603 249.021 41.3603 245.601C41.6503 243.881 41.8603 242.151 42.2103 240.441L43.3003 235.311C43.4903 234.461 43.6503 233.601 43.8603 232.761L44.5403 230.231L45.9303 225.231C46.4203 223.551 47.0403 221.921 47.5803 220.231C48.1203 218.541 48.7203 216.931 49.3103 215.301C48.5603 218.711 47.6203 222.051 46.8803 225.441L45.8003 230.621L45.2503 233.151C45.0803 234.001 44.9603 234.861 44.8103 235.711L43.9203 240.821C43.6103 242.521 43.4503 244.251 43.2103 245.961C42.6803 249.381 42.4303 252.821 42.1103 256.261C41.5887 263.149 41.4818 270.061 41.7903 276.961C41.8903 278.681 41.9703 280.411 42.1403 282.131L42.3703 284.711L42.6903 287.281C43.0925 290.711 43.7137 294.111 44.5503 297.461Z" fill="#263238"/>
<path d="M113.67 142.281C91.67 171.101 51.75 181.721 21.55 160.001C14.6 155.001 7.77998 148.371 4.54998 140.401C1.54998 132.911 2.27998 124.311 5.39998 117.041C9.26998 108.041 16.96 102.131 24.53 96.2013C32.99 89.5913 52.88 74.7313 65.53 47.9013C69.77 38.9013 72.9 29.3213 78.36 21.0413C91.81 0.631256 106.36 -2.03874 122.98 2.34126C131.26 4.53126 138.08 11.0713 141.71 19.9113C152.55 46.1312 134.55 114.941 113.67 142.281Z" fill="#263238"/>
<path d="M22.6403 95.6213C27.43 92.0661 32.0235 88.2539 36.4003 84.2013C54.8048 67.1327 68.9853 46.0159 77.8203 22.5213C66.8805 49.1919 49.3995 72.6776 26.9903 90.8113C17.3403 98.5413 5.63033 105.031 2.20033 117.811C0.790862 123.23 0.985592 128.941 2.76085 134.251C4.5361 139.56 7.81544 144.24 12.2003 147.721C12.5003 147.971 12.9403 147.561 12.6403 147.301C1.80033 137.971 -1.17966 122.161 6.93034 109.971C10.8703 104.011 16.9603 99.8813 22.6403 95.6213Z" fill="#263238"/>
<path d="M142.11 78.2413C144.805 62.387 145.357 46.2425 143.75 30.2413C143.75 30.1413 143.59 30.1413 143.6 30.2413C145.25 57.0113 142.1 83.8513 133.03 109.151C124.49 132.941 109.62 154.041 85.3204 163.351C73.5349 167.833 60.8186 169.307 48.3204 167.641C48.0204 167.641 47.9404 168.131 48.2504 168.181C59.1425 169.884 70.2778 169.12 80.8353 165.946C91.3928 162.772 101.103 157.268 109.25 149.841C128.89 131.841 137.83 103.781 142.11 78.2413Z" fill="#263238"/>
<path d="M60.0502 56.2613C68.8102 43.7313 72.9302 28.7113 82.5602 16.7413C82.6502 16.6313 82.5101 16.4713 82.4101 16.5813C73.6401 25.2713 69.8002 37.4913 63.7802 47.9913C57.5842 58.8064 49.3246 68.2993 39.4702 75.9313C30.4702 82.9313 19.6902 87.5013 11.4702 95.4213C7.50955 99.2473 4.43816 103.897 2.47338 109.041C0.50859 114.186 -0.301605 119.699 0.100145 125.191C0.870145 136.571 6.80016 147.311 15.4602 154.691C15.7002 154.891 16.0501 154.571 15.8201 154.341C5.17015 143.971 -1.17985 129.601 2.07015 114.661C5.59015 98.4913 18.9402 90.9713 31.8902 82.8013C42.9554 75.9244 52.5305 66.9001 60.0502 56.2613Z" fill="#263238"/>
<path d="M144.25 77.2113C145.929 62.5351 145.811 47.709 143.9 33.0613C143.9 32.9213 143.66 32.9113 143.68 33.0613C147.31 63.6213 143.26 95.5812 130.48 123.701C123.83 138.321 114.71 150.131 100.48 158.011C87.7102 165.091 72.9302 169.781 58.2102 168.431C57.9202 168.431 57.9202 168.861 58.2102 168.891C69.4002 170.151 80.3702 167.691 90.7302 163.501C101.31 159.221 111.5 153.201 118.99 144.441C126.71 135.441 131.74 124.041 135.76 112.941C139.942 101.393 142.79 89.4057 144.25 77.2113Z" fill="#263238"/>
<path d="M118.18 120.061C123.97 139.241 148.18 201.701 167.29 207.661C179.8 211.571 252.02 217.521 260.07 212.121C265.55 208.441 261.61 159.691 254.6 160.551C247.59 161.411 187.07 160.641 182.13 158.711C177.19 156.781 143.05 109.541 129.81 97.3813C106.98 76.4213 115.06 109.731 118.18 120.061Z" fill="#F7A9A0"/>
<path d="M240.74 159.081V218.831C240.74 218.831 174.84 216.581 160.74 206.361C146.64 196.141 123.15 142.511 114.2 113.081C105.82 85.5413 118.72 82.7013 134.94 100.081C151.16 117.461 183.26 155.951 185.35 156.441C187.44 156.931 240.74 159.081 240.74 159.081Z" fill="#92E3A9"/>
<path d="M228.29 164.681C228.733 168.556 228.977 172.451 229.02 176.351C229.19 180.351 229.24 184.421 229.31 188.451C229.38 192.481 229.11 208.611 229.04 212.641C229.04 212.678 229.025 212.714 228.999 212.74C228.973 212.767 228.937 212.781 228.9 212.781C228.863 212.781 228.827 212.767 228.801 212.74C228.775 212.714 228.76 212.678 228.76 212.641C228.58 208.641 227.85 192.641 227.76 188.641C227.67 184.641 227.64 180.731 227.7 176.771C227.625 172.734 227.755 168.695 228.09 164.671C228.14 164.621 228.28 164.621 228.29 164.681Z" fill="#263238"/>
<path opacity="0.1" d="M222.67 217.831C202.08 216.391 170.09 213.121 160.77 206.361C146.69 196.141 123.17 142.511 114.22 113.081C108.8 95.2812 112.28 87.8013 119.79 89.4313C135.1 109.511 196.06 184.951 222.67 217.831Z" fill="black"/>
<path d="M151.65 209.751L148.49 175.231C148.49 175.231 157.71 161.151 156.37 144.501C155.37 132.381 120.77 89.9912 118.54 87.9112C109.6 79.5712 92.1102 85.1513 87.2602 91.2113C63.8302 120.561 54.2602 154.971 42.6802 209.681L151.65 209.751Z" fill="#92E3A9"/>
<path d="M115.93 170.731C120.872 170.434 125.829 170.508 130.76 170.951C133.21 171.211 135.63 171.571 138.05 171.951C139.26 172.161 140.47 172.321 141.68 172.481C142.949 172.691 144.239 172.741 145.52 172.631C145.544 172.631 145.567 172.641 145.584 172.658C145.601 172.674 145.61 172.697 145.61 172.721C145.61 172.745 145.601 172.768 145.584 172.785C145.567 172.802 145.544 172.811 145.52 172.811C144.331 173.043 143.129 173.2 141.92 173.281C140.745 173.315 139.569 173.268 138.4 173.141C135.91 172.911 133.4 172.561 130.96 172.301C125.96 171.781 120.96 171.301 115.91 171.101C115.878 171.082 115.851 171.053 115.833 171.02C115.816 170.986 115.807 170.948 115.809 170.91C115.811 170.872 115.824 170.836 115.845 170.804C115.866 170.772 115.896 170.747 115.93 170.731Z" fill="#263238"/>
<path d="M104.55 176.841C108.503 175.824 112.509 175.029 116.55 174.461C118.55 174.181 120.55 174.021 122.64 173.921C123.64 173.871 124.59 173.841 125.57 173.821C126.55 173.801 127.72 173.921 128.79 173.881C128.9 173.881 128.93 174.041 128.79 174.051C127.79 174.121 126.79 174.351 125.79 174.481L122.79 174.851C120.79 175.101 118.79 175.371 116.73 175.601C112.68 176.071 108.65 176.601 104.61 177.171C104.35 177.201 104.32 176.891 104.55 176.841Z" fill="#263238"/>
<path d="M20.7302 282.201L91.9602 293.771C111.21 296.901 110.63 281.001 108.63 264.081C106.63 247.161 103.78 221.561 86.5802 218.771L68.0902 215.771L49.5802 212.771C32.3702 209.971 21.5802 233.361 14.3102 248.771C7.04017 264.181 1.47015 279.071 20.7302 282.201Z" fill="#92E3A9"/>
<g opacity="0.2">
<path d="M20.7302 282.201L91.9602 293.771C111.21 296.901 110.63 281.001 108.63 264.081C106.63 247.161 103.78 221.561 86.5802 218.771L68.0902 215.771L49.5802 212.771C32.3702 209.971 21.5802 233.361 14.3102 248.771C7.04017 264.181 1.47015 279.071 20.7302 282.201Z" fill="black"/>
</g>
<path opacity="0.1" d="M80.48 226.501C80.2847 227.674 80.4421 228.878 80.9321 229.961C81.4221 231.044 82.2228 231.956 83.2324 232.584C84.242 233.211 85.4152 233.524 86.6031 233.483C87.791 233.443 88.9401 233.05 89.9046 232.356C90.8692 231.661 91.6057 230.696 92.0207 229.582C92.4358 228.468 92.5107 227.256 92.2359 226.1C91.9612 224.944 91.3492 223.895 90.4775 223.087C89.6059 222.279 88.5138 221.748 87.34 221.561C85.776 221.313 84.1773 221.693 82.8922 222.618C81.6072 223.543 80.7401 224.939 80.48 226.501Z" fill="black"/>
<path opacity="0.1" d="M41.1102 220.111C40.9169 221.284 41.0761 222.487 41.5676 223.569C42.0591 224.651 42.8607 225.562 43.8709 226.188C44.881 226.814 46.0542 227.125 47.2417 227.083C48.4292 227.042 49.5776 226.648 50.5411 225.953C51.5047 225.257 52.2402 224.292 52.6542 223.178C53.0683 222.064 53.1423 220.853 52.8669 219.697C52.5915 218.541 51.9792 217.493 51.1074 216.685C50.2356 215.878 49.1438 215.347 47.9702 215.161C46.4048 214.913 44.8047 215.294 43.5194 216.222C42.2341 217.149 41.368 218.547 41.1102 220.111Z" fill="black"/>
<path d="M82.3802 226.811C82.2522 227.602 82.3615 228.412 82.6942 229.141C83.0268 229.869 83.568 230.483 84.2492 230.904C84.9305 231.325 85.7212 231.534 86.5215 231.506C87.3218 231.478 88.0957 231.213 88.7455 230.744C89.3952 230.276 89.8916 229.626 90.1719 228.876C90.4522 228.126 90.5039 227.309 90.3203 226.53C90.1367 225.75 89.7262 225.043 89.1405 224.497C88.5549 223.951 87.8205 223.59 87.0302 223.461C85.97 223.294 84.8865 223.552 84.0156 224.179C83.1447 224.806 82.5569 225.753 82.3802 226.811Z" fill="#263238"/>
<path d="M43.01 220.421C42.8821 221.212 42.9914 222.022 43.324 222.751C43.6567 223.479 44.1979 224.093 44.8791 224.514C45.5603 224.935 46.3511 225.144 47.1514 225.116C47.9517 225.088 48.7256 224.823 49.3754 224.354C50.0251 223.886 50.5215 223.236 50.8018 222.486C51.0821 221.736 51.1338 220.919 50.9502 220.14C50.7666 219.361 50.356 218.653 49.7704 218.107C49.1848 217.561 48.4504 217.2 47.66 217.071C47.1347 216.986 46.5977 217.004 46.0796 217.126C45.5615 217.248 45.0725 217.471 44.6407 217.782C44.2088 218.094 43.8425 218.487 43.5627 218.94C43.2829 219.392 43.0951 219.896 43.01 220.421Z" fill="#263238"/>
<path d="M48.5503 221.761L46.5503 221.621C46.5503 221.001 46.6403 220.221 46.7003 219.311C49.7803 169.791 59.8603 130.311 76.6403 101.901C80.7403 94.9713 88.7403 87.9513 94.1903 84.9013L95.1903 86.6413C89.9603 89.6413 82.3003 96.3213 78.3703 102.961C61.7503 131.071 51.7703 170.271 48.7003 219.471C48.6203 220.361 48.5503 221.131 48.5503 221.761Z" fill="#263238"/>
<path opacity="0.1" d="M43.5202 235.921L85.0102 243.031L82.2102 259.351L59.9102 264.891L40.6602 252.611L43.5202 235.921Z" fill="black"/>
<path d="M87.3202 227.811L85.4502 227.121C85.7202 226.391 112.51 154.121 116.94 131.591C121.3 109.511 122.61 96.7713 117.68 88.4213L119.4 87.4213C124.66 96.3313 123.4 109.421 118.91 132.001C114.42 154.581 87.5502 227.081 87.3202 227.811Z" fill="#263238"/>
<path d="M201.55 117.241H156.78V197.231H201.55V117.241Z" fill="#37474F"/>
<path d="M156.79 117.241H146.32V197.231H156.79V117.241Z" fill="#263238"/>
<path d="M156.79 138.551H146.32V141.461H156.79V138.551Z" fill="#37474F"/>
<path d="M146.31 153.011H156.78V146.301H146.31V153.011Z" fill="#37474F"/>
<path d="M146.31 176.331H156.78V173.421H146.31V176.331Z" fill="#37474F"/>
<path d="M201.55 138.551H156.78V141.461H201.55V138.551Z" fill="#455A64"/>
<path d="M156.79 153.011H201.56V146.301H156.79V153.011Z" fill="#455A64"/>
<path d="M156.79 176.331H201.56V173.421H156.79V176.331Z" fill="#455A64"/>
<path d="M226.37 191.931L180.68 199.751L169.46 120.711L215.15 112.891L226.37 191.931Z" fill="#92E3A9"/>
<path d="M170 201.571L180.68 199.751L169.46 120.711L158.78 122.541L170 201.571Z" fill="#92E3A9"/>
<path opacity="0.1" d="M170 201.571L180.68 199.751L169.46 120.711L158.78 122.541L170 201.571Z" fill="black"/>
<path d="M171.75 136.811L161.06 138.641L160.12 132.011L170.81 130.181L171.75 136.811Z" fill="#263238"/>
<path d="M172.66 143.211L161.97 145.041L161.56 142.171L172.25 140.341L172.66 143.211Z" fill="#263238"/>
<path d="M167.57 184.451L178.25 182.621L179.19 189.261L168.51 191.091L167.57 184.451Z" fill="#263238"/>
<path d="M166.66 178.061L177.35 176.231L177.75 179.101L167.07 180.931L166.66 178.061Z" fill="#263238"/>
<path d="M215.53 182.921L188.52 187.541L186.67 174.511L213.68 169.891L215.53 182.921Z" fill="white"/>
<path d="M248.37 117.241H198.19V197.231H248.37V117.241Z" fill="#EBEBEB"/>
<path d="M198.19 117.241H186.46V197.231H198.19V117.241Z" fill="#DBDBDB"/>
<path d="M194.35 130.151H190.3V184.321H194.35V130.151Z" fill="#263238"/>
<path d="M235.83 130.151H210.73V133.411H235.83V130.151Z" fill="white"/>
<path d="M263.06 94.9013C250.44 111.991 237.29 131.811 234.06 153.241C234.06 153.561 234.55 153.671 234.62 153.351C236.075 147.507 237.94 141.773 240.2 136.191C248.49 133.911 256.63 132.031 260.99 123.801C265.43 115.341 264.87 104.311 263.99 95.0913C263.98 94.6213 263.31 94.6213 263.06 94.9013Z" fill="#92E3A9"/>
<path d="M240.34 136.031C246.01 123.311 253.34 110.541 262.53 100.091C262.6 100.021 262.69 100.091 262.64 100.191C256.58 107.641 251.98 115.751 247.49 124.001C251.67 119.761 256.24 116.001 260.2 111.471C260.28 111.381 260.4 111.471 260.33 111.591C256.4 116.311 252.11 121.431 246.99 124.921C245.61 127.451 244.23 129.991 242.83 132.531C243.17 132.341 243.53 132.171 243.88 131.991C243.888 131.997 243.895 132.004 243.9 132.013C243.905 132.022 243.907 132.031 243.907 132.041C243.907 132.051 243.905 132.061 243.9 132.07C243.895 132.078 243.888 132.086 243.88 132.091C243.49 132.281 243.11 132.491 242.7 132.661C242.04 133.861 241.38 135.071 240.7 136.271C240.6 136.531 240.22 136.301 240.34 136.031Z" fill="#263238"/>
<path d="M244.55 131.621C247.942 129.726 251.179 127.566 254.23 125.161C254.32 125.091 254.44 125.211 254.35 125.281C251.392 127.836 248.151 130.044 244.69 131.861C244.659 131.875 244.624 131.876 244.591 131.865C244.559 131.855 244.531 131.833 244.514 131.803C244.497 131.774 244.491 131.739 244.498 131.705C244.504 131.672 244.523 131.642 244.55 131.621Z" fill="#263238"/>
<path d="M232.62 150.051C232.62 150.311 233.09 150.311 233.09 150.051C233.15 143.001 233.09 135.911 233.2 128.821C235.01 125.171 238.89 123.151 241.58 120.231C243.509 118.096 245.186 115.748 246.58 113.231C249.826 107.208 251.81 100.587 252.41 93.7712C253.16 86.2212 250.29 61.3213 247.11 62.1813C245.46 62.6313 240.11 74.9712 238.71 79.0512C236.421 85.7757 234.748 92.6941 233.71 99.7213C231.15 116.291 231.36 133.341 232.62 150.051Z" fill="#92E3A9"/>
<path d="M232.55 119.621C232.93 110.691 234.94 101.681 236.83 93.0213C238.83 83.6913 241.23 74.9113 246.03 66.5913C246.039 66.5762 246.05 66.5629 246.064 66.5522C246.077 66.5415 246.093 66.5336 246.11 66.529C246.127 66.5243 246.144 66.523 246.161 66.5252C246.178 66.5273 246.195 66.5327 246.21 66.5413C246.225 66.5498 246.239 66.5612 246.249 66.5749C246.26 66.5886 246.268 66.6042 246.272 66.6209C246.277 66.6376 246.278 66.6551 246.276 66.6723C246.274 66.6895 246.269 66.7062 246.26 66.7213C243.062 73.1939 240.584 79.998 238.87 87.0113C239.2 86.5113 239.59 86.0113 239.87 85.5613C240 85.3713 240.31 85.5613 240.18 85.7413C239.752 86.4959 239.249 87.206 238.68 87.8613H238.62C236.97 94.5213 235.78 101.341 234.77 108.151L234.99 107.881C235.04 107.831 235.13 107.881 235.1 107.961C234.97 108.191 234.83 108.411 234.69 108.641C234.18 112.091 233.69 115.541 233.23 118.951C239.38 113.701 244.63 107.501 247.59 99.8713C247.59 99.8713 247.66 99.8713 247.65 99.8713C244.75 107.781 240.17 114.871 233.13 119.621L232.74 122.381C232.74 122.571 232.41 122.521 232.41 122.381C232.41 121.561 232.41 120.751 232.49 119.931C232.465 119.911 232.446 119.884 232.436 119.853C232.425 119.823 232.422 119.79 232.428 119.759C232.434 119.727 232.449 119.697 232.47 119.673C232.492 119.649 232.519 119.631 232.55 119.621Z" fill="#263238"/>
<path d="M235.47 106.681C240.17 99.6813 244.56 92.8613 248 85.1113C248 85.0213 248.18 85.1113 248.15 85.1713C245.25 92.8713 241.15 100.681 235.71 106.861C235.686 106.893 235.651 106.914 235.611 106.92C235.572 106.925 235.532 106.915 235.5 106.891C235.468 106.867 235.447 106.832 235.442 106.792C235.436 106.753 235.446 106.713 235.47 106.681Z" fill="#263238"/>
<path d="M241.71 83.3812C243.71 79.9312 245.71 76.5813 247.55 73.0713C247.55 72.9713 247.73 73.0713 247.69 73.1513C246.189 76.8163 244.288 80.3041 242.02 83.5512C241.89 83.7312 241.6 83.6212 241.71 83.3812Z" fill="#263238"/>
<path d="M240.95 84.8713V84.9313C240.95 84.9313 240.92 84.8713 240.95 84.8713Z" fill="#263238"/>
<path d="M227.85 129.621C227.752 134.297 227.2 138.952 226.2 143.521C226.27 144.021 226.35 144.521 226.42 145.041C227.851 140.016 228.686 134.841 228.91 129.621C228.952 129.548 228.975 129.466 228.975 129.381C228.975 129.297 228.952 129.214 228.91 129.141C229.106 122.106 228.583 115.07 227.35 108.141C225.16 95.1412 220.35 82.7313 211.35 73.0113C211.276 72.9458 211.188 72.8983 211.093 72.8726C210.997 72.8469 210.897 72.8436 210.801 72.863C210.704 72.8823 210.613 72.9239 210.535 72.9843C210.456 73.0447 210.393 73.1224 210.35 73.2113C206.7 82.4913 207.97 93.5613 211.08 102.821C212.77 107.833 215.186 112.57 218.25 116.881C221.37 121.191 225.33 124.881 227.85 129.621Z" fill="#92E3A9"/>
<path d="M212.44 77.3013C221.01 91.2113 226.97 107.701 227.7 124.131C227.7 124.421 227.22 124.501 227.18 124.201C226.98 122.731 226.75 121.261 226.52 119.811C222.98 116.411 219.34 112.811 216.8 108.591C216.792 108.575 216.789 108.557 216.793 108.539C216.797 108.521 216.806 108.505 216.82 108.493C216.834 108.481 216.852 108.475 216.87 108.475C216.888 108.474 216.906 108.48 216.92 108.491C219.859 112.106 223.015 115.539 226.37 118.771C225.75 115.145 225.014 111.568 224.16 108.041C223.93 107.781 223.71 107.511 223.49 107.251C223.27 106.991 223.58 106.821 223.74 106.991L223.95 107.221C222.739 102.394 221.243 97.6421 219.47 92.9913C217.28 90.3913 214.84 88.1413 213.25 84.9913C213.244 84.9756 213.243 84.958 213.248 84.9418C213.253 84.9256 213.265 84.9119 213.279 84.9033C213.294 84.8947 213.311 84.8918 213.328 84.8951C213.345 84.8984 213.36 84.9077 213.37 84.9213C214.65 86.7113 215.88 88.5213 217.37 90.1813C217.95 90.8413 218.58 91.4613 219.18 92.1113C217.21 87.0689 214.871 82.1789 212.18 77.4813C211.98 77.2813 212.31 77.0913 212.44 77.3013Z" fill="#263238"/>
<path d="M214.17 94.4613C216.94 98.1913 220.1 101.741 222.67 105.601C222.75 105.711 222.58 105.821 222.49 105.741C219.18 102.631 216.38 98.3913 213.98 94.5713C213.91 94.4513 214.09 94.3513 214.17 94.4613Z" fill="#263238"/>
<path d="M223.06 106.461L223.18 106.581C223.26 106.661 223.18 106.791 223.05 106.711L222.93 106.591C222.85 106.511 222.98 106.381 223.06 106.461Z" fill="#263238"/>
<path d="M199.01 104.041C200.009 111.806 203.122 119.146 208.01 125.261C210.034 127.656 212.533 129.604 215.35 130.981C218.52 132.551 221.85 134.361 225.14 135.651C226.699 139.63 227.858 143.753 228.6 147.961C228.71 147.601 228.81 147.231 228.92 146.871C226.81 128.751 215.08 113.271 200.09 103.331C199.974 103.267 199.842 103.235 199.709 103.24C199.576 103.246 199.447 103.287 199.336 103.36C199.224 103.433 199.135 103.535 199.078 103.655C199.021 103.775 198.997 103.909 199.01 104.041Z" fill="#92E3A9"/>
<path d="M204.19 109.391C204.09 109.301 204.19 109.111 204.34 109.201C212.583 115.325 219.155 123.424 223.45 132.751C223.56 132.991 223.22 133.211 223.08 132.961C222.414 131.741 221.704 130.551 220.95 129.391C217.53 128.741 214.28 126.331 211.74 124.051C211.67 123.991 211.74 123.891 211.84 123.951C213.153 125.132 214.612 126.14 216.18 126.951C217.57 127.661 219.07 128.101 220.53 128.671C219.26 126.671 217.93 124.731 216.53 122.851C212.834 121.449 209.369 119.501 206.25 117.071C206.15 117.001 206.25 116.841 206.34 116.911C209.44 118.779 212.634 120.484 215.91 122.021C213.819 119.263 211.561 116.635 209.15 114.151C207.99 113.531 206.81 112.911 205.68 112.261C205.661 112.248 205.646 112.229 205.64 112.206C205.633 112.183 205.635 112.159 205.645 112.138C205.654 112.116 205.671 112.099 205.692 112.088C205.713 112.078 205.737 112.076 205.76 112.081C206.696 112.41 207.589 112.85 208.42 113.391C207.08 112.061 205.68 110.711 204.19 109.391Z" fill="#263238"/>
<path d="M204.55 115.621C204.754 115.743 204.947 115.88 205.13 116.031C205.13 116.081 205.13 116.151 205.05 116.121C204.84 116.028 204.639 115.914 204.45 115.781C204.31 115.751 204.4 115.621 204.55 115.621Z" fill="#263238"/>
<path d="M252.36 187.201H211.27L214.58 149.781L215.31 141.521H248.32L249.05 149.781L252.36 187.201Z" fill="#455A64"/>
<path d="M249.05 149.781H214.58L215.31 141.521H248.32L249.05 149.781Z" fill="#263238"/>
<path d="M250.28 135.751H213.35V143.921H250.28V135.751Z" fill="#455A64"/>
<path d="M271.18 144.77L137.121 144.934L137.225 230.084L271.285 229.92L271.18 144.77Z" fill="#92E3A9"/>
<path opacity="0.2" d="M271.18 144.77L137.121 144.934L137.225 230.084L271.285 229.92L271.18 144.77Z" fill="black"/>
<path opacity="0.2" d="M137.191 230.13L182.841 230.082L182.752 144.922L137.102 144.97L137.191 230.13Z" fill="black"/>
<path d="M140.36 224.211C143.734 218.151 147.067 212.075 150.36 205.981L160.27 187.621L170.02 169.221C173.26 163.075 176.464 156.908 179.63 150.721C176.257 156.781 172.924 162.858 169.63 168.951L159.75 187.281L150 205.691C146.74 211.851 143.527 218.025 140.36 224.211Z" fill="#92E3A9"/>
<path d="M140.27 150.791C143.457 156.971 146.673 163.131 149.92 169.271L159.72 187.651L169.65 205.961C172.983 212.055 176.34 218.128 179.72 224.181C176.527 218.001 173.31 211.841 170.07 205.701L160.27 187.311L150.34 169.001C147.02 162.915 143.663 156.845 140.27 150.791Z" fill="#92E3A9"/>
<path opacity="0.7" d="M166.81 166.701H165.03L163.59 164.881L162.26 166.701H161.45H160.59L159.36 166.711L158.89 166.061L158.29 166.711H156.8H156.43H155.94L155.73 166.251L155.28 166.711L154.66 165.891L153.95 166.711H152.95L152.92 144.911L166.78 144.901L166.81 166.701Z" fill="white"/>
<path opacity="0.1" d="M271.28 229.951L271.27 224.091L182.85 213.311L182.87 230.031L271.28 229.951Z" fill="black"/>
<path d="M282.65 164.071H194.22L182.77 144.881H271.2L282.65 164.071Z" fill="#92E3A9"/>
<path d="M173.32 164.071H127.68L137.13 144.901H182.77L173.32 164.071Z" fill="#92E3A9"/>
<path opacity="0.2" d="M173.32 164.071H127.68L137.13 144.901H182.77L173.32 164.071Z" fill="black"/>
<path d="M81.8701 106.131C76.1001 138.391 75.8701 204.551 85.0501 213.791C100.94 229.791 134.77 245.061 154.3 250.361C160.93 252.161 174.48 201.201 167.13 200.941C158.35 200.621 119.81 181.731 119.13 179.941C118.25 177.541 108.35 138.321 101.54 111.481C93.4101 79.4012 84.1701 93.2613 81.8701 106.131Z" fill="#F7A9A0"/>
<path d="M149.34 248.881C166.69 255.211 187.91 264.151 208.41 260.371C210.712 260.019 212.827 258.898 214.41 257.191C223.63 255.661 225.67 250.851 225.67 250.851C233.82 246.801 235.24 241.591 235.24 241.591C235.24 241.591 246.04 239.681 245.97 232.961C245.91 225.421 230.75 229.581 220.97 226.771C198.66 220.331 168.75 204.941 162.5 202.451L149.34 248.881Z" fill="#F7A9A0"/>
<path d="M192.86 236.451C199.46 238.221 205.86 240.121 212.71 240.981C220.18 241.931 227.52 241.581 235.01 241.421C235.058 241.421 235.104 241.44 235.137 241.474C235.171 241.508 235.19 241.554 235.19 241.601C235.19 241.649 235.171 241.695 235.137 241.729C235.104 241.762 235.058 241.781 235.01 241.781C221.51 244.221 205.37 242.061 192.74 236.781C192.47 236.621 192.55 236.361 192.86 236.451Z" fill="#263238"/>
<path d="M187.02 249.351C193.54 250.711 205.02 253.031 225.61 250.631C225.68 250.631 225.71 250.731 225.61 250.751C212.868 253.972 199.482 253.581 186.95 249.621C186.55 249.541 186.55 249.261 187.02 249.351Z" fill="#263238"/>
<path d="M184.01 256.341C195.18 258.231 202.47 258.011 214.32 257.151C214.39 257.151 214.41 257.261 214.32 257.271C200.95 259.671 195.83 259.021 183.87 256.721C183.48 256.621 183.55 256.271 184.01 256.341Z" fill="#263238"/>
<path d="M194.55 217.311C191.98 215.311 193 213.961 198.78 213.911C204.56 213.861 227.55 218.621 228.49 210.451C229.43 202.281 197.03 196.121 187.41 196.941C177.79 197.761 162.51 202.451 162.51 202.451C168.55 204.921 182.74 212.311 194.55 217.311Z" fill="#F7A9A0"/>
<path d="M166.31 198.621L146.74 253.621C146.74 253.621 86.1602 222.691 80.7402 210.881C73.4702 195.081 75.0502 138.811 79.9302 110.431C84.8102 82.0513 96.6702 87.3813 102.43 110.431C108.19 133.481 118.75 176.941 120.34 178.381C121.93 179.821 166.31 198.621 166.31 198.621Z" fill="#92E3A9"/>
<path d="M154.96 198.531C154.1 202.301 152.67 206.011 151.44 209.681C150.21 213.351 148.75 217.281 147.36 221.071C145.97 224.861 139.93 239.821 138.42 243.551C138.405 243.582 138.378 243.606 138.346 243.619C138.313 243.631 138.277 243.631 138.245 243.619C138.213 243.606 138.186 243.582 138.17 243.551C138.155 243.52 138.151 243.485 138.16 243.451C139.44 239.621 144.5 224.451 145.88 220.741C147.26 217.031 148.61 213.301 150.08 209.631C151.55 205.961 152.93 202.031 154.79 198.491C154.83 198.411 154.98 198.421 154.96 198.531Z" fill="#263238"/>
<path d="M165.55 200.751L166.23 198.601V198.701C158.02 195.461 149.87 192.061 141.73 188.701L129.58 183.441L123.55 180.731C122.55 180.271 121.55 179.831 120.55 179.321L120.17 179.121L119.97 179.021C119.849 178.946 119.738 178.856 119.64 178.751C119.416 178.487 119.228 178.195 119.08 177.881C118.82 177.341 118.61 176.821 118.41 176.291C116.9 172.051 115.84 167.781 114.72 163.501C113.6 159.221 112.61 154.921 111.72 150.611C109.79 141.991 108 133.351 106.41 124.671L112.78 150.361L116.07 163.161C117.21 167.411 118.33 171.701 119.83 175.771C120.009 176.263 120.216 176.744 120.45 177.211C120.541 177.399 120.652 177.577 120.78 177.741L120.95 177.831L121.3 178.001C122.25 178.461 123.3 178.941 124.3 179.401L130.3 182.131L142.38 187.521C150.38 191.181 158.46 194.801 166.44 198.521H166.51V198.591L165.55 200.751Z" fill="#263238"/>
<path d="M108.37 126.491C108.606 127.639 108.694 128.812 108.63 129.981C108.591 131.15 108.389 132.308 108.03 133.421C108.03 132.831 108.03 132.261 108.03 131.681L108.09 129.961C108.19 128.811 108.24 127.621 108.37 126.491Z" fill="#263238"/>
<path d="M77.8 126.291C77.56 133.131 77.34 139.971 77.22 146.811C77.1 153.651 76.98 160.481 77.02 167.321C77.06 174.161 77.16 180.991 77.52 187.801C77.7 191.211 77.94 194.611 78.33 197.991C78.6483 201.349 79.2776 204.67 80.21 207.911C80.4539 208.679 80.7685 209.422 81.15 210.131C81.33 210.471 81.59 210.801 81.81 211.131C82.0418 211.478 82.2921 211.812 82.56 212.131C83.6343 213.417 84.7971 214.627 86.0399 215.751C88.5643 218.022 91.2116 220.152 93.97 222.131C99.48 226.131 105.26 229.781 111.07 233.371C116.88 236.961 122.8 240.371 128.76 243.741C134.72 247.111 140.76 250.381 146.76 253.631C140.58 250.701 134.48 247.581 128.42 244.401C122.36 241.221 116.42 237.861 110.48 234.401C104.54 230.941 98.78 227.251 93.18 223.261C90.3659 221.266 87.6619 219.119 85.08 216.831C83.7739 215.671 82.554 214.418 81.43 213.081C81.1354 212.748 80.8616 212.398 80.61 212.031C80.3393 211.667 80.0921 211.287 79.87 210.891C79.4541 210.093 79.1191 209.256 78.87 208.391C77.9178 205.052 77.285 201.63 76.9799 198.171C76.6099 194.751 76.3899 191.321 76.2299 187.901C75.9199 181.041 75.85 174.191 75.96 167.341C76.12 153.628 76.7333 139.945 77.8 126.291Z" fill="#263238"/>
<path d="M76.4804 128.031C76.6104 129.301 76.7204 130.551 76.8704 131.801C76.9404 132.421 77.0304 133.041 77.1104 133.661C77.1904 134.281 77.3104 134.901 77.3904 135.541C76.8535 134.376 76.5155 133.128 76.3904 131.851C76.2252 130.581 76.2556 129.293 76.4804 128.031Z" fill="#263238"/>
<path d="M274.11 156.431C278.02 163.661 287.36 172.431 288.41 178.431C288.723 179.906 288.551 181.442 287.921 182.812C287.29 184.181 286.234 185.31 284.91 186.031C284.91 186.031 291.11 188.731 291.15 194.341C291.15 197.231 286.58 199.811 286.58 199.811C286.58 199.811 291.45 202.191 291.19 207.191C290.97 211.191 286.4 213.191 286.4 213.191C286.4 213.191 290.01 217.651 288.49 221.641C285.42 229.731 251.23 231.511 245.29 219.191C242.52 213.451 250.9 213.471 250.9 213.471C250.9 213.471 238.9 210.541 238.31 203.471C237.72 196.401 248.64 197.111 248.64 197.111C248.64 197.111 237 194.111 237.17 186.811C237.34 179.151 248.11 181.691 248.11 181.691C248.11 181.691 240.24 176.941 241.66 171.341C244 162.091 258.99 172.781 266.41 170.611L269.91 158.001L274.11 156.431Z" fill="#F7A9A0"/>
<path d="M281.55 166.841C278.45 159.671 287.03 150.171 285.05 142.841C282.37 132.991 271.67 143.341 269.93 157.941L270.57 169.511L281.55 166.841Z" fill="#F7A9A0"/>
<path d="M285.72 213.621C285.741 213.619 285.762 213.624 285.78 213.636C285.798 213.648 285.81 213.665 285.816 213.685C285.822 213.706 285.821 213.727 285.813 213.747C285.804 213.766 285.789 213.782 285.77 213.791C274.66 217.121 261.45 217.381 250.44 213.531C250.08 213.411 250.12 212.771 250.55 212.831C262.65 214.621 273.55 215.191 285.72 213.621Z" fill="#263238"/>
<path d="M286.75 199.871C286.88 199.871 286.91 200.071 286.75 200.111C275.29 203.471 260.39 203.351 248.22 197.431C247.81 197.231 247.63 196.621 248.13 196.821C256.55 200.151 275.79 201.381 286.75 199.871Z" fill="#263238"/>
<path d="M247.36 180.971C259.24 186.201 271.61 187.091 284.44 186.181C284.61 186.181 284.61 186.401 284.44 186.451C278.29 188.611 270.05 188.341 263.65 187.581C257.701 186.994 252.009 184.86 247.14 181.391C246.98 181.251 247.1 180.861 247.36 180.971Z" fill="#263238"/>
<path d="M95.5502 87.7013C96.1702 89.8713 106.03 102.591 116.05 101.631C119.31 101.321 119.68 84.4713 119.68 84.4713L119.92 83.1313L123.16 64.4413L100.76 51.5513L97.5302 49.8513C97.5302 49.8513 96.9802 55.0313 96.3602 61.4813C96.3602 61.7713 96.3002 62.0713 96.2702 62.3913C96.2402 62.7113 96.1802 63.1013 96.1602 63.3913C96.0502 64.3913 95.9502 65.3913 95.8602 66.3213C95.8002 67.0613 95.7302 67.7913 95.6902 68.5813C95.6502 69.3713 95.5902 70.1313 95.5302 70.9213C95.1102 78.7513 95.3102 86.7713 95.5502 87.7013Z" fill="#F7A9A0"/>
<path d="M123.17 64.4413L119.93 83.1313L119.7 84.4713C119.7 84.4713 119.7 86.6713 119.44 89.4713C106.93 90.8913 95.7403 78.3213 95.3003 77.8213C95.3003 75.6413 95.4103 73.2913 95.5403 70.9513C95.6003 70.1613 95.6403 69.3913 95.7003 68.6013C95.7603 67.8113 95.8103 67.0913 95.8803 66.3513C95.9603 65.3513 96.0603 64.3513 96.1703 63.4213C96.1703 63.0813 96.2403 62.7413 96.2903 62.4213C96.3403 62.1013 96.3403 61.8013 96.3703 61.5013C96.9903 55.0513 97.5403 49.8813 97.5403 49.8813L100.77 51.5813L123.17 64.4413Z" fill="#263238"/>
<path d="M74.9401 37.6213C70.3701 70.6213 89.6001 77.0712 96.7201 78.0512C103.18 78.9412 125.28 81.1513 133.24 48.8113C141.2 16.4713 127.31 3.92126 112.65 1.11126C97.9901 -1.69874 79.5501 4.62126 74.9401 37.6213Z" fill="#F7A9A0"/>
<path d="M85.2103 32.0713C86.0003 32.0713 86.7203 31.8613 87.4903 31.7513C88.3071 31.7455 89.1 31.4754 89.7504 30.9813C89.9233 30.7838 90.0268 30.535 90.0449 30.2731C90.0629 30.0112 89.9946 29.7506 89.8503 29.5313C89.4933 29.1488 89.0424 28.8663 88.5425 28.712C88.0425 28.5576 87.5109 28.5367 87.0004 28.6513C85.9337 28.7375 84.9366 29.2147 84.2003 29.9913C84.0402 30.1776 83.938 30.4068 83.9065 30.6505C83.8749 30.8942 83.9152 31.1418 84.0225 31.3628C84.1299 31.5839 84.2995 31.7687 84.5105 31.8946C84.7216 32.0204 84.9648 32.0819 85.2103 32.0713Z" fill="#263238"/>
<path d="M108.6 39.7413C107.82 39.5913 107.13 39.3313 106.38 39.1113C105.572 38.9979 104.824 38.6219 104.25 38.0413C104.103 37.8246 104.034 37.565 104.052 37.304C104.07 37.043 104.175 36.7955 104.35 36.6013C104.75 36.2639 105.232 36.0404 105.748 35.9542C106.264 35.868 106.793 35.9222 107.28 36.1113C108.329 36.3394 109.255 36.9488 109.88 37.8213C110.012 38.0274 110.081 38.2675 110.079 38.5122C110.077 38.7569 110.003 38.9957 109.867 39.1993C109.732 39.4029 109.539 39.5626 109.314 39.6589C109.089 39.7551 108.841 39.7837 108.6 39.7413Z" fill="#263238"/>
<path d="M103.33 43.2713C103.33 43.1813 103.5 43.3913 103.49 43.4813C103.21 45.7413 103.27 48.3612 105.24 49.3012C105.3 49.3012 105.29 49.4413 105.24 49.4213C102.75 48.8413 102.71 45.3613 103.33 43.2713Z" fill="#263238"/>
<path d="M105.55 41.1013C109.21 41.1513 108.83 48.4613 105.44 48.4113C102.05 48.3613 102.55 41.0513 105.55 41.1013Z" fill="#263238"/>
<path d="M106.98 41.5613C107.59 42.0013 108.18 42.7713 108.98 42.8813C109.78 42.9913 110.58 42.2913 111.2 41.5813C111.26 41.5113 111.32 41.5813 111.32 41.6713C111.26 43.0813 110.65 44.4813 109.14 44.6113C107.63 44.7413 106.84 43.4413 106.56 42.0113C106.48 41.7513 106.73 41.3813 106.98 41.5613Z" fill="#263238"/>
<path d="M89.6803 41.3813C89.6803 41.2913 89.5003 41.4913 89.5003 41.5813C89.5903 43.8513 89.3002 46.4613 87.2602 47.2213C87.1902 47.2213 87.2002 47.3613 87.2602 47.3513C89.7802 46.9813 90.1203 43.5113 89.6803 41.3813Z" fill="#263238"/>
<path d="M87.64 39.0213C83.99 38.7613 83.74 46.0813 87.13 46.3213C90.52 46.5613 90.7 39.2413 87.64 39.0213Z" fill="#263238"/>
<path d="M86.1904 39.3613C85.5404 39.7513 84.8903 40.4613 84.1103 40.5113C83.3303 40.5613 82.5703 39.7813 82.0103 39.0313C81.9503 38.9513 81.8903 39.0313 81.8803 39.1113C81.8203 40.5113 82.3103 41.9613 83.8003 42.2213C85.2903 42.4813 86.1903 41.2213 86.5903 39.8513C86.6603 39.6213 86.4504 39.2013 86.1904 39.3613Z" fill="#263238"/>
<path d="M100.55 60.9313C100 61.4613 99.4501 62.1813 98.6301 62.2513C97.7879 62.2254 96.9604 62.0244 96.2001 61.6613C96.1301 61.6613 96.0501 61.7113 96.1001 61.7713C96.4204 62.2205 96.8563 62.5748 97.3615 62.7966C97.8668 63.0184 98.4226 63.0995 98.9701 63.0313C99.4332 62.913 99.8506 62.6596 100.169 62.3035C100.488 61.9474 100.694 61.5045 100.76 61.0313C100.76 60.9013 100.55 60.8513 100.55 60.9313Z" fill="#263238"/>
<path d="M100.27 56.9213C97.3903 57.8827 94.3113 58.0859 91.3301 57.5113C91.0801 57.4413 90.9201 56.9113 90.9101 56.6613C90.9101 56.5813 91.6701 52.0313 91.6701 52.0313C91.0201 52.2513 87.6701 53.2413 87.8801 52.3713C89.2801 45.1813 90.8801 37.1913 93.7601 30.3713C93.7747 30.3195 93.8092 30.2757 93.8561 30.2495C93.903 30.2232 93.9584 30.2167 94.0101 30.2313C94.0618 30.2458 94.1056 30.2804 94.1319 30.3273C94.1581 30.3742 94.1647 30.4295 94.1501 30.4813C93.0701 37.4813 90.7801 44.1613 89.5901 51.1413C90.7687 50.7692 91.9944 50.5672 93.2301 50.5413C93.4501 50.6413 92.3301 55.6113 92.3101 56.3713C94.9441 56.6646 97.6043 56.631 100.23 56.2713C101.34 56.0613 101.61 56.3713 100.27 56.9213Z" fill="#263238"/>
<path d="M131.92 52.9713C129.82 51.8622 128.044 50.2266 126.766 48.2247C125.488 46.2228 124.752 43.9232 124.63 41.5513C118.91 38.8009 114.021 34.5846 110.46 29.3313C110.66 30.0213 112.1 35.0213 112.91 37.5513C91.9601 32.8913 85.9801 16.5513 85.9801 16.5513C78.9101 23.1413 77.4001 27.4613 76.3301 29.6013C76.3301 29.6013 76.6201 16.6613 83.5701 8.22127C92.0701 -2.10873 119.66 -4.03873 131.91 10.2213C145.1 25.6213 131.92 52.9713 131.92 52.9713Z" fill="#263238"/>
<path d="M97.0004 33.5113C100.329 35.479 103.932 36.9416 107.69 37.8513C101.818 36.0137 96.5754 32.5748 92.5504 27.9213C90.8424 25.9358 89.3879 23.7457 88.2204 21.4013C86.8489 18.8812 85.9891 16.1148 85.6904 13.2613C85.6813 13.2244 85.66 13.1917 85.6301 13.1683C85.6002 13.1449 85.5634 13.1322 85.5254 13.1322C85.4874 13.1322 85.4506 13.1449 85.4207 13.1683C85.3908 13.1917 85.3695 13.2244 85.3604 13.2613C85.3551 16.1091 85.8249 18.9379 86.7504 21.6313C87.7868 24.2623 89.2948 26.6819 91.2004 28.7713C92.9116 30.6075 94.8704 32.1961 97.0204 33.4913" fill="#263238"/>
<path d="M127.65 50.6213C127.65 50.6213 135.44 40.6213 140.02 43.4413C144.6 46.2613 138.36 61.0413 132.73 62.8113C132.023 63.0901 131.267 63.2227 130.507 63.201C129.748 63.1793 129 63.0038 128.311 62.685C127.621 62.3663 127.003 61.9109 126.494 61.3465C125.985 60.7821 125.596 60.1203 125.35 59.4013L127.65 50.6213Z" fill="#F7A9A0"/>
<path d="M138.12 47.6213C138.135 47.6269 138.149 47.6372 138.158 47.6506C138.167 47.664 138.172 47.6799 138.172 47.6963C138.172 47.7126 138.167 47.7285 138.158 47.7419C138.149 47.7554 138.135 47.7656 138.12 47.7713C134.12 49.1413 131.93 52.6313 130.31 56.2813C131.54 54.9113 133.15 54.2013 135 55.6713C135.1 55.7513 135 55.9113 134.88 55.8813C134.211 55.6256 133.479 55.5845 132.786 55.7637C132.092 55.9429 131.472 56.3335 131.01 56.8813C130.24 57.8082 129.569 58.8137 129.01 59.8813C128.81 60.2213 128.2 60.0013 128.35 59.6113C128.346 59.5814 128.346 59.5511 128.35 59.5213C128.55 54.6213 132.79 47.8813 138.12 47.6213Z" fill="#263238"/>
<path d="M131.92 63.1213C131.949 63.4829 131.87 63.845 131.693 64.1615C131.515 64.4779 131.248 64.7346 130.924 64.8988C130.601 65.063 130.236 65.1273 129.876 65.0836C129.516 65.0399 129.177 64.8901 128.902 64.6534C128.627 64.4166 128.429 64.1034 128.332 63.7537C128.236 63.404 128.245 63.0335 128.36 62.6892C128.474 62.345 128.688 62.0426 128.975 61.8204C129.262 61.5982 129.608 61.4662 129.97 61.4413C130.451 61.4081 130.925 61.566 131.291 61.8805C131.656 62.195 131.882 62.6409 131.92 63.1213Z" fill="#92E3A9"/>
<path d="M119.6 85.2713L116.48 100.911L94.9502 85.9113L90.9502 92.7713C90.9502 92.7713 114.12 118.711 113.95 117.371L117.6 103.711L127.89 110.811L123.08 89.0313L119.6 85.2713Z" fill="#EBEBEB"/>
<path d="M126.13 99.8913C125.22 96.3213 124.4 92.7013 123.32 89.1813C123.32 89.0613 123.07 89.0413 123.07 89.1813C123 92.8113 126.57 106.441 127.17 109.751H127.12C126.69 109.441 117.66 103.581 117.61 103.751C116.68 105.981 113.99 115.941 113.84 116.831C110.18 112.701 96.2902 97.8313 92.1602 94.0513C92.0402 93.9413 91.8603 94.0513 91.9703 94.2113C95.3603 98.6613 113.8 118.751 113.97 118.641C115.48 113.899 116.745 109.083 117.76 104.211C119.35 105.551 128.63 112.341 128.56 111.801C127.957 107.792 127.146 103.816 126.13 99.8913Z" fill="#263238"/>
</svg>
