<svg xmlns="http://www.w3.org/2000/svg" viewBox="0 0 500 500"><g id="freepik--background-complete--inject-264"><rect y="382.4" width="500" height="0.25" style="fill:#e6e6e6"></rect><rect x="79.46" y="390.42" width="34.4" height="0.25" style="fill:#e6e6e6"></rect><rect x="120.45" y="390.42" width="10.28" height="0.25" style="fill:#e6e6e6"></rect><rect x="162.09" y="385.51" width="19.36" height="0.25" style="fill:#e6e6e6"></rect><rect x="387.42" y="395.97" width="43.19" height="0.25" style="fill:#e6e6e6"></rect><rect x="439.52" y="395.97" width="6.33" height="0.25" style="fill:#e6e6e6"></rect><rect x="304.67" y="387.19" width="93.68" height="0.25" style="fill:#e6e6e6"></rect><path d="M237,337.8H43.91a5.71,5.71,0,0,1-5.7-5.71V60.66A5.71,5.71,0,0,1,43.91,55H237a5.71,5.71,0,0,1,5.71,5.71V332.09A5.71,5.71,0,0,1,237,337.8ZM43.91,55.2a5.46,5.46,0,0,0-5.45,5.46V332.09a5.46,5.46,0,0,0,5.45,5.46H237a5.47,5.47,0,0,0,5.46-5.46V60.66A5.47,5.47,0,0,0,237,55.2Z" style="fill:#e6e6e6"></path><path d="M453.31,337.8H260.21a5.72,5.72,0,0,1-5.71-5.71V60.66A5.72,5.72,0,0,1,260.21,55h193.1A5.71,5.71,0,0,1,459,60.66V332.09A5.71,5.71,0,0,1,453.31,337.8ZM260.21,55.2a5.47,5.47,0,0,0-5.46,5.46V332.09a5.47,5.47,0,0,0,5.46,5.46h193.1a5.47,5.47,0,0,0,5.46-5.46V60.66a5.47,5.47,0,0,0-5.46-5.46Z" style="fill:#e6e6e6"></path><rect x="348.95" y="246.11" width="70.07" height="136.29" style="fill:#f5f5f5"></rect><rect x="413.24" y="246.11" width="5.78" height="136.29" style="fill:#f0f0f0"></rect><rect x="193.01" y="250" width="161.33" height="29.44" transform="translate(547.36 529.44) rotate(180)" style="fill:#e0e0e0"></rect><path d="M260.29,382.5H191.12a1,1,0,0,1,0-2h69.17c10,0,11.33-2.92,11.33-14.5V220a1,1,0,0,1,2,0V366C273.62,378.38,271.7,382.5,260.29,382.5Z" style="fill:#e0e0e0"></path><rect x="199.23" y="246.63" width="218.22" height="10.22" transform="translate(616.67 503.49) rotate(180)" style="fill:#f0f0f0"></rect><rect x="130.73" y="246.11" width="70.07" height="136.29" style="fill:#f5f5f5"></rect><rect x="195.01" y="246.11" width="5.78" height="136.29" style="fill:#f0f0f0"></rect><rect x="-0.24" y="230.98" width="242.7" height="60.13" transform="translate(382.16 139.94) rotate(90)" style="fill:#fafafa"></rect><rect x="94.35" y="146.78" width="53.53" height="53.53" transform="translate(294.66 52.44) rotate(90)" style="fill:#f5f5f5"></rect><path d="M109.26,146.07H133a5.55,5.55,0,0,1-5.55,5.55h-12.6A5.55,5.55,0,0,1,109.26,146.07Z" style="fill:#e0e0e0"></path><rect x="94.35" y="205.12" width="53.53" height="53.53" transform="translate(352.99 110.77) rotate(90)" style="fill:#f5f5f5"></rect><rect x="94.35" y="263.45" width="53.53" height="53.53" transform="translate(411.33 169.1) rotate(90)" style="fill:#f5f5f5"></rect><rect x="94.35" y="321.78" width="53.53" height="53.53" transform="translate(469.66 227.44) rotate(90)" style="fill:#f5f5f5"></rect><path d="M109.26,204.41H133a5.56,5.56,0,0,1-5.55,5.55h-12.6A5.56,5.56,0,0,1,109.26,204.41Z" style="fill:#e0e0e0"></path><path d="M109.26,262.74H133a5.55,5.55,0,0,1-5.55,5.55h-12.6A5.55,5.55,0,0,1,109.26,262.74Z" style="fill:#e0e0e0"></path><path d="M109.26,321.07H133a5.55,5.55,0,0,1-5.55,5.55h-12.6A5.55,5.55,0,0,1,109.26,321.07Z" style="fill:#e0e0e0"></path><rect x="-45.32" y="246.03" width="242.7" height="30.03" transform="translate(337.08 185.02) rotate(90)" style="fill:#f0f0f0"></rect><polygon points="264.39 246.11 249.28 246.11 252.95 216.69 268.07 216.69 264.39 246.11" style="fill:#f0f0f0"></polygon><polygon points="267.74 246.11 252.62 246.11 256.3 216.69 271.41 216.69 267.74 246.11" style="fill:#f5f5f5"></polygon><polygon points="300.16 246.11 289.23 246.11 287.14 242.78 298.06 242.78 300.16 246.11" style="fill:#f0f0f0"></polygon><polygon points="358.72 246.11 292.57 246.11 290.48 242.78 349.8 242.78 358.72 246.11" style="fill:#fafafa"></polygon><path d="M216.46,237.67h4.78a8.44,8.44,0,0,1,8.44,8.44H208A8.44,8.44,0,0,1,216.46,237.67Z" style="fill:#f0f0f0"></path><polygon points="269.57 231.4 254.46 231.4 256.3 216.69 271.41 216.69 269.57 231.4" style="fill:#f0f0f0"></polygon><path d="M214,227.88H321a1.48,1.48,0,0,0,1.47-1.67l-8.24-65.92a1.48,1.48,0,0,0-1.47-1.3H205.79a1.48,1.48,0,0,0-1.47,1.66l8.24,65.93A1.48,1.48,0,0,0,214,227.88Z" style="fill:#f0f0f0"></path><path d="M215.62,227.88H322.55a1.48,1.48,0,0,0,1.47-1.67l-8.24-65.92a1.49,1.49,0,0,0-1.47-1.3H207.38a1.48,1.48,0,0,0-1.47,1.66l8.24,65.93A1.48,1.48,0,0,0,215.62,227.88Z" style="fill:#f5f5f5"></path><path d="M320.57,224.23l-7.71-61.7a.42.42,0,0,0-.42-.36H209.77a.4.4,0,0,0-.41.46l7.71,61.71a.41.41,0,0,0,.41.36H320.16A.42.42,0,0,0,320.57,224.23Z" style="fill:#e0e0e0"></path><path d="M256.87,243.35h24.62a0,0,0,0,1,0,0v.31a2.45,2.45,0,0,1-2.45,2.45H259.32a2.45,2.45,0,0,1-2.45-2.45v-.31A0,0,0,0,1,256.87,243.35Z" transform="translate(538.36 489.46) rotate(180)" style="fill:#fafafa"></path><path d="M243,243.35h16.7a0,0,0,0,1,0,0v.31a2.45,2.45,0,0,1-2.45,2.45h-11.8a2.45,2.45,0,0,1-2.45-2.45v-.31A0,0,0,0,1,243,243.35Z" transform="translate(502.74 489.46) rotate(180)" style="fill:#f0f0f0"></path><path d="M116.46,112.29v-.05c.23-.77.45-1.55.64-2.33a4.06,4.06,0,0,0,3.14,1.89l.27,0c1.67-.16,3.27-1.78,4.28-4.33a.37.37,0,0,0,0-.29.39.39,0,0,0-.23-.19,8.79,8.79,0,0,0-7.07,1.23c.15-.74.28-1.49.39-2.23a4.43,4.43,0,0,0,.8.08c2.72,0,4.72-2.43,4.82-2.55a.36.36,0,0,0-.15-.56,5,5,0,0,0-4.09-.16,3.63,3.63,0,0,0-1.61,1.63,8.94,8.94,0,0,0-7.09-6.06.33.33,0,0,0-.29.07.33.33,0,0,0-.14.26c-.14,2.47-.06,5.5,1.79,6.94a4.22,4.22,0,0,0,2.68.82,9.76,9.76,0,0,0,2.54-.4,40.24,40.24,0,0,1-1.15,5.29,14,14,0,0,0-7.31-5.14.37.37,0,0,0-.44.26c-.56,2.13-.27,3.86.83,5a5.6,5.6,0,0,0,4.14,1.42,12.4,12.4,0,0,0,2.4-.25c-.46,1.46-1,2.89-1.51,4.25-1.11-1-4.38-3.48-7.94-2.44a.38.38,0,0,0-.22.19.37.37,0,0,0,0,.29c1,2.36,2.07,3.67,3.45,4.12a3.58,3.58,0,0,0,1.14.18,6.5,6.5,0,0,0,3-.88c-.76,1.81-1.57,3.5-2.34,5a7.26,7.26,0,0,0-7.17-1.9.35.35,0,0,0-.28.38,4.34,4.34,0,0,0,2.59,3.48,4.18,4.18,0,0,0,1.67.34,4.94,4.94,0,0,0,2.28-.59c-.78,1.45-1.5,2.66-2.06,3.58h-6.8c-1.08-1.85-2.33-4.15-3.55-6.73a6.48,6.48,0,0,0,1.75.27,4.75,4.75,0,0,0,4.66-5.93.35.35,0,0,0-.39-.25,8.69,8.69,0,0,0-6.72,4.37c-.8-1.8-1.58-3.71-2.26-5.68a6.32,6.32,0,0,0,2.83.82,3.4,3.4,0,0,0,1.16-.19c2-.66,3.15-3.07,4.13-5.57a.33.33,0,0,0,0-.29.37.37,0,0,0-.23-.19c-4-1.12-7.29,2.73-8.31,4.11a49.06,49.06,0,0,1-1.33-5.07,14,14,0,0,0,2.55.26,6.22,6.22,0,0,0,4.68-1.64c1.21-1.28,1.5-3.2.85-5.54a.35.35,0,0,0-.44-.25,15.32,15.32,0,0,0-7.91,5.73l-.15-.91a.38.38,0,0,0-.1-.21A4.39,4.39,0,0,0,90.37,103a5.48,5.48,0,0,0-4.48.24.39.39,0,0,0-.22.25.35.35,0,0,0,.08.31c.1.13,2.3,2.73,5.26,2.73a5.2,5.2,0,0,0,.95-.1c.13.85.29,1.7.47,2.54a9.66,9.66,0,0,0-7.82-1.26.39.39,0,0,0-.23.19.39.39,0,0,0,0,.3c1.15,2.78,2.93,4.54,4.77,4.69h.25c.93,0,2.19-.43,3.47-2.14a56.42,56.42,0,0,0,1.82,5.74c-1.73-.82-5.62-2.23-8.4-.08a.35.35,0,0,0-.07.5c1.8,2.45,3.46,3.64,5.09,3.64h0c1.35,0,2.64-.85,3.93-2.53.74,1.84,1.54,3.6,2.33,5.22-1.73-1.07-3.63-.9-5.87.51a.35.35,0,0,0-.17.3.33.33,0,0,0,.15.3A8.86,8.86,0,0,0,96.23,126a4,4,0,0,0,2.37-.72c.64,1.23,1.27,2.36,1.85,3.37H97.36v1.76h1.12l.93,9.32H113.1l.92-9.32h1.13v-1.76H109c.68-1.13,1.55-2.64,2.48-4.41a.34.34,0,0,0,.06-.12c.24-.45.47-.91.71-1.39a4.62,4.62,0,0,0,3.7,2.07,3.55,3.55,0,0,0,.46,0,4.44,4.44,0,0,0,3.66-2.86.35.35,0,0,0-.16-.43,7.59,7.59,0,0,0-6.92-.28c.52-1.09,1-2.26,1.52-3.47a.29.29,0,0,0,.07-.16c.14-.34.27-.68.41-1,1.19,1.5,2.37,2.24,3.6,2.24h0c1.49,0,3-1.1,4.62-3.37a.36.36,0,0,0-.07-.5c-2.55-1.91-6-.6-7.62.16.33-.9.63-1.81.91-2.74Z" style="fill:#e0e0e0"></path><rect x="351.33" y="108.07" width="51.14" height="56.15" style="fill:#e0e0e0"></rect><path d="M396.16,110.37a.28.28,0,0,1-.13,0c-.12-.08-12.2-7.26-16-7.26s-15.35,7.18-15.47,7.25a.24.24,0,0,1-.34-.08.25.25,0,0,1,.08-.34c.48-.3,11.75-7.33,15.73-7.33s15.8,7,16.3,7.33a.24.24,0,0,1,.08.34A.24.24,0,0,1,396.16,110.37Z" style="fill:#ebebeb"></path><rect x="355.18" y="108.07" width="52.82" height="56.15" style="fill:#f5f5f5"></rect><rect x="357.94" y="114.16" width="47.3" height="43.97" transform="translate(517.74 -245.45) rotate(90)" style="fill:#fff"></rect><circle cx="381.59" cy="136.14" r="12.05" transform="translate(15.5 309.7) rotate(-45)" style="fill:#e0e0e0"></circle><path d="M380.57,314.25h44.82a15.7,15.7,0,0,0,15.71-15.39l1.68-82.06a11.45,11.45,0,0,0-11.45-11.68h-28.1a11.44,11.44,0,0,0-11.37,10.15Z" style="fill:#e6e6e6"></path><path d="M355,305.67h47.76a2.24,2.24,0,0,1,2.24,2.24v.21a6.14,6.14,0,0,1-6.14,6.14H355a0,0,0,0,1,0,0v-8.59A0,0,0,0,1,355,305.67Z" transform="translate(760.03 619.92) rotate(180)" style="fill:#e6e6e6"></path><path d="M401.26,383.52a1,1,0,0,1-1-.79l-14-67.48h-24.4l-14,67.48a1,1,0,0,1-2-.41l14.18-68.27a1,1,0,0,1,1-.8h26a1,1,0,0,1,1,.8l14.17,68.27a1,1,0,0,1-.77,1.18A.75.75,0,0,1,401.26,383.52Z" style="fill:#e6e6e6"></path><path d="M386.05,383.52a.68.68,0,0,1-.2,0,1,1,0,0,1-.78-1.18l14.18-68.27a1,1,0,0,1,1-.8h26a1,1,0,0,1,1,.8l14.17,68.27a1,1,0,0,1-2,.41l-14-67.48H401l-14,67.48A1,1,0,0,1,386.05,383.52Z" style="fill:#e6e6e6"></path></g><g id="freepik--Shadow--inject-264"><ellipse cx="250" cy="416.24" rx="193.89" ry="11.32" style="fill:#f5f5f5"></ellipse></g><g id="freepik--Character--inject-264"><path d="M267.11,407a1.36,1.36,0,0,1-1.33-1.09l-19-93.56H213.69l-19,93.56a1.36,1.36,0,0,1-2.66-.54l19.22-94.65a1.37,1.37,0,0,1,1.33-1.09h35.3a1.36,1.36,0,0,1,1.33,1.09l19.23,94.65a1.36,1.36,0,0,1-1.06,1.6Z" style="fill:#407BFF"></path><path d="M214,407a1.37,1.37,0,0,1-1.33-1.09l-19-93.56H160.58l-19,93.56a1.36,1.36,0,1,1-2.66-.54l19.23-94.65a1.36,1.36,0,0,1,1.33-1.09h35.3a1.35,1.35,0,0,1,1.32,1.09l19.23,94.65a1.36,1.36,0,0,1-1.06,1.6Z" style="fill:#407BFF"></path><path d="M221.43,311h-60.8a21.32,21.32,0,0,1-21.32-20.89l-2.26-92.4a15.53,15.53,0,0,1,15.52-15.85h38.12a15.54,15.54,0,0,1,15.43,13.78Z" style="fill:#407BFF"></path><path d="M188.27,299.3h59.5a8.33,8.33,0,0,1,8.33,8.33v.29a3,3,0,0,1-3,3H188.27a0,0,0,0,1,0,0V299.3A0,0,0,0,1,188.27,299.3Z" style="fill:#407BFF"></path><g style="opacity:0.30000000000000004"><path d="M267.11,407a1.36,1.36,0,0,1-1.33-1.09l-19-93.56H213.69l-19,93.56a1.36,1.36,0,0,1-2.66-.54l19.22-94.65a1.37,1.37,0,0,1,1.33-1.09h35.3a1.36,1.36,0,0,1,1.33,1.09l19.23,94.65a1.36,1.36,0,0,1-1.06,1.6Z"></path><path d="M214,407a1.37,1.37,0,0,1-1.33-1.09l-19-93.56H160.58l-19,93.56a1.36,1.36,0,1,1-2.66-.54l19.23-94.65a1.36,1.36,0,0,1,1.33-1.09h35.3a1.35,1.35,0,0,1,1.32,1.09l19.23,94.65a1.36,1.36,0,0,1-1.06,1.6Z"></path><path d="M221.43,311h-60.8a21.32,21.32,0,0,1-21.32-20.89l-2.26-92.4a15.53,15.53,0,0,1,15.52-15.85h38.12a15.54,15.54,0,0,1,15.43,13.78Z"></path><path d="M188.27,299.3h59.5a8.33,8.33,0,0,1,8.33,8.33v.29a3,3,0,0,1-3,3H188.27a0,0,0,0,1,0,0V299.3A0,0,0,0,1,188.27,299.3Z"></path></g><path d="M204.51,176.76s8.5,11.1,3,33.2-33.88,10.1-35.6-9.82c-2-23.48,24.36-7.29,29-28.17Z" style="fill:#263238"></path><path d="M198.34,170.17c-3.69,2.6-5.15,6.38-1.07,10.08s9.9,3.58,11.66,2.06,1.41-9.24,1.41-9.24Z" style="fill:#407BFF"></path><path d="M198.34,170.17c-3.69,2.6-5.15,6.38-1.07,10.08s9.9,3.58,11.66,2.06,1.41-9.24,1.41-9.24Z" style="fill:#fff;opacity:0.8"></path><path d="M244.94,219.36c.1.45.27,1.15.43,1.74l.48,1.88c.34,1.26.71,2.52,1.1,3.78.74,2.54,1.56,5.07,2.42,7.6s1.74,5,2.7,7.56c.47,1.25.94,2.51,1.44,3.76l.58,1.5a3,3,0,0,0,.45.71,13.26,13.26,0,0,0,5.07,3.2,46.6,46.6,0,0,0,7.2,2.24c2.54.59,5.15,1.08,7.79,1.49s5.35.74,7.95,1l.09,5.38a83.4,83.4,0,0,1-17.16,0,50.49,50.49,0,0,1-8.81-1.71,29.65,29.65,0,0,1-4.54-1.79,17.39,17.39,0,0,1-4.56-3.21,12.62,12.62,0,0,1-2-2.59c-.15-.24-.28-.51-.42-.76l-.26-.54-.46-1c-.62-1.27-1.24-2.54-1.81-3.83-1.16-2.58-2.29-5.18-3.3-7.83s-2-5.32-2.84-8c-.41-1.38-.81-2.75-1.18-4.16l-.55-2.11c-.16-.76-.31-1.39-.47-2.29Z" style="fill:#e58a7b"></path><path d="M241.54,208c4.29,1.09,7.28,18.73,7.28,18.73l-11.81,8s-11.33-17.8-8-22.51C232.42,207.38,235.28,206.44,241.54,208Z" style="fill:#407BFF"></path><path d="M241.54,208c4.29,1.09,7.28,18.73,7.28,18.73l-11.81,8s-11.33-17.8-8-22.51C232.42,207.38,235.28,206.44,241.54,208Z" style="fill:#fff;opacity:0.5"></path><path d="M240,212.44l-10.27,8.14A90.6,90.6,0,0,0,237,234.8l8.19-5.57Z" style="fill:#407BFF;opacity:0.2"></path><path d="M241.54,208s5,1.74-5,62.77H194.32c.71-17.19.73-27.79-7.48-63.08a125.24,125.24,0,0,1,17.93-2.36,134.91,134.91,0,0,1,19.19,0C232.2,206.12,241.54,208,241.54,208Z" style="fill:#407BFF"></path><path d="M241.54,208s5,1.74-5,62.77H194.32c.71-17.19.73-27.79-7.48-63.08a125.24,125.24,0,0,1,17.93-2.36,134.91,134.91,0,0,1,19.19,0C232.2,206.12,241.54,208,241.54,208Z" style="fill:#fff;opacity:0.5"></path><path d="M281,255.77l7.37-7.48,1,10.54s-5.53,3.74-9.35,1.73Z" style="fill:#e58a7b"></path><polygon points="297.07 247.18 297.4 256.04 289.36 258.83 288.39 248.29 297.07 247.18" style="fill:#e58a7b"></polygon><polygon points="284.46 397.3 294.86 397.3 296.46 373.21 286.06 373.21 284.46 397.3" style="fill:#e58a7b"></polygon><polygon points="244.21 397.3 254.61 397.3 257.95 373.21 247.55 373.21 244.21 397.3" style="fill:#e58a7b"></polygon><path d="M255.26,396.09H243.57a.82.82,0,0,0-.83.71l-1.33,9.25a1.68,1.68,0,0,0,1.67,1.85c4.07-.07,6-.31,11.17-.31,3.16,0,11.27.33,15.64.33s4.6-4.32,2.78-4.71c-8.15-1.76-12.93-4.17-15.68-6.48A2.67,2.67,0,0,0,255.26,396.09Z" style="fill:#263238"></path><path d="M295.67,396.09H284a.83.83,0,0,0-.83.71l-1.33,9.25a1.68,1.68,0,0,0,1.67,1.85c4.07-.07,6-.31,11.17-.31,3.17,0,9.7.33,14.07.33s4.6-4.32,2.78-4.71c-8.15-1.76-11.36-4.17-14.1-6.48A2.71,2.71,0,0,0,295.67,396.09Z" style="fill:#263238"></path><path d="M233.25,162.72c3.74.24,5.64,19-5.33,17.91S233.25,162.72,233.25,162.72Z" style="fill:#263238"></path><polygon points="296.46 373.21 295.63 385.63 285.23 385.63 286.05 373.21 296.46 373.21" style="fill:#cf6f64"></polygon><polygon points="247.55 373.21 257.96 373.21 256.23 385.63 245.82 385.63 247.55 373.21" style="fill:#cf6f64"></polygon><path d="M191.06,227.31c1,5.12,1.71,9.54,2.25,13.52l2.47-19.11Z" style="fill:#407BFF;opacity:0.2"></path><path d="M206.67,183.77c1.21,6.17,2.42,17.48-1.9,21.6,0,0,1.69,6.26,13.16,6.26,12.61,0,6-6.26,6-6.26-6.89-1.64-6.71-6.75-5.51-11.54Z" style="fill:#e58a7b"></path><polygon points="215.65 212.97 219.49 211.59 218.98 210.54 215.65 212.97" style="fill:#263238"></polygon><polygon points="223.1 212.17 219.49 211.59 220.27 210.42 223.1 212.17" style="fill:#263238"></polygon><path d="M206.17,202.46,203.56,205a.43.43,0,0,0,0,.6l11,12.53a12.38,12.38,0,0,1,4.48-7.54c-9.1-3.44-11.47-7-12.28-8A.35.35,0,0,0,206.17,202.46Z" style="fill:#407BFF"></path><path d="M221.89,204.38l3.24.88a.57.57,0,0,1,.4.41,24.21,24.21,0,0,1-.5,12.41c-.46-1.7-2-5.77-4.76-7.66,3-2.07,1.79-4.74,1.36-5.75A.22.22,0,0,1,221.89,204.38Z" style="fill:#407BFF"></path><path d="M211.48,187.87l7,5.95a20.71,20.71,0,0,0-.59,3.4c-2.63-.38-6.24-3.26-6.52-6A9.09,9.09,0,0,1,211.48,187.87Z" style="fill:#cf6f64"></path><path d="M206,167.51c-1.19,10.25-1.92,14.57,2.28,20.69,6.3,9.21,19.16,8.43,23.39-1.26,3.81-8.72,5.11-24-4.09-29.84A14.08,14.08,0,0,0,206,167.51Z" style="fill:#e58a7b"></path><path d="M229.44,150.58c-16.95-6.69-29.68.86-32.31,11.59C193,178.83,206.19,180,206.19,180l1.65-4.26c2.37,1.43,9,.8,7-11.57-1.18-7,7.68,2.75,18.92,1.66C236.75,165.54,240.84,155.08,229.44,150.58Z" style="fill:#263238"></path><path d="M235.21,154.7c-2.23-3.43-6.79-6.37-16.24-7.76,0,0,4.91,1.11,6.5,4.7S237.9,158.83,235.21,154.7Z" style="fill:#263238"></path><path d="M202.74,176.38a7.51,7.51,0,0,0,1.83,5.46c1.75,2,4.05.77,4.77-1.63.64-2.17.51-5.81-1.83-6.91S202.93,173.94,202.74,176.38Z" style="fill:#e58a7b"></path><path d="M236.57,270.81s69.74,6.49,69.06,38.2c-.71,33-7.77,74.22-7.77,74.22H283.45s-1.23-34.88-1.65-67.37c-.21-16.92-67.6-20.31-67.6-20.31l-8.7-24.74Z" style="fill:#263238"></path><path d="M225.41,270.81s45.07,14.95,46.21,33.45c2.09,34.06-12.88,79-12.88,79H244.55s.81-29.8,2.5-60.66c2.14-38.78-66.28-.54-52.73-51.76Z" style="fill:#263238"></path><path d="M220.83,173.1c-.15.82.17,1.57.71,1.67s1.09-.5,1.24-1.32-.17-1.58-.71-1.67S221,172.27,220.83,173.1Z" style="fill:#263238"></path><path d="M230.16,174.77c-.15.82.17,1.57.71,1.67s1.1-.5,1.25-1.32-.17-1.58-.71-1.67S230.31,173.94,230.16,174.77Z" style="fill:#263238"></path><path d="M231.16,173.45l2.09-.22S232,174.6,231.16,173.45Z" style="fill:#263238"></path><path d="M227.44,175.74a22.62,22.62,0,0,0,2,5.8,3.62,3.62,0,0,1-3,0Z" style="fill:#df5753"></path><path d="M223,184.21h0a7.07,7.07,0,0,1-5.18-3.75.16.16,0,0,1,.08-.21.17.17,0,0,1,.21.09A6.73,6.73,0,0,0,223,183.9a.17.17,0,0,1,.13.19A.16.16,0,0,1,223,184.21Z" style="fill:#263238"></path><path d="M218.64,169.41a.29.29,0,0,1-.23-.1.3.3,0,0,1,0-.44,4.7,4.7,0,0,1,4.14-1.26.32.32,0,0,1,.22.38.31.31,0,0,1-.38.23,4.06,4.06,0,0,0-3.56,1.11A.34.34,0,0,1,218.64,169.41Z" style="fill:#263238"></path><path d="M235.26,171.05a.3.3,0,0,1-.29-.19,4.11,4.11,0,0,0-2.82-2.44.32.32,0,0,1-.26-.36.32.32,0,0,1,.37-.26,4.67,4.67,0,0,1,3.28,2.81.32.32,0,0,1-.16.42Z" style="fill:#263238"></path><path d="M193.15,222.78c-.91,3-1.89,6-2.76,9.08s-1.79,6.08-2.58,9.13-1.54,6.07-2.1,9c-.27,1.48-.52,2.95-.66,4.33-.08.69-.12,1.34-.13,1.94,0,.14,0,0-.1-.23a2.51,2.51,0,0,0-.5-.73c-.51-.44-.7-.36-.47-.29a4.69,4.69,0,0,0,1.28.13,21.83,21.83,0,0,0,4-.51,74.59,74.59,0,0,0,8.79-2.51c5.91-2,11.91-4.44,17.75-6.93l2.58,4.71a140.14,140.14,0,0,1-17.33,9.68,73.76,73.76,0,0,1-9.59,3.73,29.64,29.64,0,0,1-5.6,1.13,14,14,0,0,1-3.56-.09,9.09,9.09,0,0,1-2.27-.65,7.85,7.85,0,0,1-2.5-1.72,8.13,8.13,0,0,1-2.23-5.4c-.05-1-.06-2,0-2.9.07-1.85.24-3.6.47-5.31.48-3.42,1.1-6.72,1.86-10s1.57-6.45,2.46-9.63,1.85-6.3,3-9.48Z" style="fill:#e58a7b"></path><path d="M258.82,397.84a12.15,12.15,0,0,1-2.73-.38.17.17,0,0,1-.06-.31c.35-.23,3.47-2.25,4.66-1.72a.75.75,0,0,1,.44.64,1.31,1.31,0,0,1-.38,1.24A2.92,2.92,0,0,1,258.82,397.84Zm-2.25-.62c1.93.4,3.38.35,3.94-.17a1,1,0,0,0,.28-.93.43.43,0,0,0-.25-.37C259.78,395.41,257.67,396.54,256.57,397.22Z" style="fill:#407BFF"></path><path d="M256.13,397.47l-.09,0a.18.18,0,0,1-.09-.16c0-.12,0-3.08,1.12-4.06a1.17,1.17,0,0,1,1-.31.78.78,0,0,1,.77.62c.21,1.08-1.53,3.29-2.62,3.91Zm1.76-4.22a.86.86,0,0,0-.59.24c-.79.7-.95,2.68-1,3.47,1-.72,2.34-2.54,2.17-3.35,0-.13-.1-.3-.46-.35Z" style="fill:#407BFF"></path><path d="M299.58,397.84a18.2,18.2,0,0,1-3.27-.37.19.19,0,0,1-.14-.15.17.17,0,0,1,.1-.18c.46-.24,4.57-2.34,5.82-1.66a.74.74,0,0,1,.38.6,1.28,1.28,0,0,1-.42,1.13A3.83,3.83,0,0,1,299.58,397.84Zm-2.69-.62c1.34.23,4,.56,4.92-.26a1,1,0,0,0,.31-.85.38.38,0,0,0-.2-.33C301.1,395.34,298.34,396.51,296.89,397.22Z" style="fill:#407BFF"></path><path d="M296.35,397.47a.17.17,0,0,1-.1,0,.21.21,0,0,1-.08-.16c0-.12.25-2.89,1.53-4a1.72,1.72,0,0,1,1.31-.4c.64.06.82.38.87.63.18,1.15-2.24,3.35-3.46,3.9Zm2.47-4.22a1.32,1.32,0,0,0-.89.34c-.94.78-1.27,2.65-1.37,3.4,1.31-.73,3.1-2.61,3-3.38,0-.08,0-.3-.55-.35Z" style="fill:#407BFF"></path><path d="M215.43,245.35l9.86-2.5-4.7,9.47s-6.67.29-8.87-3.43Z" style="fill:#e58a7b"></path><polygon points="233.26 246.44 228.9 254.16 220.59 252.32 225.29 242.85 233.26 246.44" style="fill:#e58a7b"></polygon><path d="M221.82,171.78l2.09-.22S222.62,172.93,221.82,171.78Z" style="fill:#263238"></path><path d="M193.69,268.33l-.34,3.78c-.14.3.2.6.69.6h42.74c.38,0,.69-.19.72-.43l.38-3.78c0-.26-.31-.48-.72-.48H194.38A.78.78,0,0,0,193.69,268.33Z" style="fill:#407BFF"></path><path d="M199.44,273.12h-1.15c-.23,0-.4-.12-.39-.26l.54-4.92c0-.14.22-.26.45-.26H200c.23,0,.4.12.39.26l-.54,4.92C199.86,273,199.66,273.12,199.44,273.12Z" style="fill:#263238"></path><path d="M233.56,273.12h-1.15c-.23,0-.4-.12-.39-.26l.54-4.92c0-.14.22-.26.45-.26h1.14c.23,0,.4.12.39.26l-.54,4.92C234,273,233.78,273.12,233.56,273.12Z" style="fill:#263238"></path><path d="M216.5,273.12h-1.15c-.23,0-.4-.12-.39-.26l.54-4.92c0-.14.22-.26.45-.26h1.14c.23,0,.4.12.39.26l-.54,4.92C216.92,273,216.73,273.12,216.5,273.12Z" style="fill:#263238"></path><path d="M186.84,207.73c-4.24,1.29-9.32,15.86-9.32,15.86l13.65,13.33s8.76-13.75,7-19.22C196.3,212,191.67,206.27,186.84,207.73Z" style="fill:#407BFF"></path><path d="M186.84,207.73c-4.24,1.29-9.32,15.86-9.32,15.86l13.65,13.33s8.76-13.75,7-19.22C196.3,212,191.67,206.27,186.84,207.73Z" style="fill:#fff;opacity:0.5"></path></g><g id="freepik--Desk--inject-264"><rect x="334.1" y="260.42" width="79.56" height="154.75" style="fill:#407BFF"></rect><rect x="334.1" y="260.42" width="79.56" height="154.75" style="fill:#fff;opacity:0.6000000000000001"></rect><rect x="179.97" y="260.42" width="79.56" height="154.75" style="fill:#407BFF"></rect><rect x="179.97" y="260.42" width="79.56" height="154.75" style="fill:#fff;opacity:0.6000000000000001"></rect><rect x="410.08" y="260.42" width="6.56" height="154.75" style="fill:#407BFF"></rect><rect x="410.08" y="260.42" width="6.56" height="154.75" style="opacity:0.30000000000000004"></rect><rect x="260.48" y="260.42" width="158.19" height="11.61" transform="translate(679.15 532.45) rotate(180)" style="fill:#407BFF"></rect><rect x="260.48" y="260.42" width="158.19" height="11.61" transform="translate(679.15 532.45) rotate(180)" style="opacity:0.30000000000000004"></rect><rect x="255.96" y="260.42" width="6.56" height="154.75" style="fill:#407BFF"></rect><rect x="255.96" y="260.42" width="6.56" height="154.75" style="opacity:0.30000000000000004"></rect><rect x="260.1" y="264" width="153.26" height="33.43" transform="translate(673.46 561.44) rotate(180)" style="fill:#407BFF"></rect><rect x="260.1" y="264" width="153.26" height="33.43" transform="translate(673.46 561.44) rotate(180)" style="opacity:0.30000000000000004"></rect><path d="M413.7,419.67H369.53a11.32,11.32,0,0,1-11.31-11.31V269a10,10,0,0,0-10-10H335v-1h13.21a11,11,0,0,1,11,11V408.36a10.32,10.32,0,0,0,10.31,10.31H413.7a3.57,3.57,0,0,0,2.13-6.44l.59-.8a4.57,4.57,0,0,1-2.72,8.24Z" style="fill:#407BFF"></path><path d="M413.7,419.67H369.53a11.32,11.32,0,0,1-11.31-11.31V269a10,10,0,0,0-10-10H335v-1h13.21a11,11,0,0,1,11,11V408.36a10.32,10.32,0,0,0,10.31,10.31H413.7a3.57,3.57,0,0,0,2.13-6.44l.59-.8a4.57,4.57,0,0,1-2.72,8.24Z" style="opacity:0.30000000000000004"></path><rect x="419.14" y="306.08" width="1" height="19.33" style="fill:#407BFF"></rect><rect x="419.14" y="306.08" width="1" height="19.33" style="opacity:0.30000000000000004"></rect><rect x="419.14" y="294.67" width="1" height="5.08" style="fill:#407BFF"></rect><rect x="419.14" y="294.67" width="1" height="5.08" style="opacity:0.30000000000000004"></rect></g><g id="freepik--Computer--inject-264"><polygon points="346.9 214.22 272.76 214.22 262.02 258 336.15 258 346.9 214.22" style="fill:#407BFF"></polygon><polygon points="346.9 214.22 272.76 214.22 262.02 258 336.15 258 346.9 214.22" style="fill:#fff;opacity:0.4"></polygon><polygon points="264.29 258 263.99 260.42 234.9 260.42 235.2 258 264.29 258" style="fill:#407BFF"></polygon><polygon points="264.29 258 263.99 260.42 234.9 260.42 235.2 258 264.29 258" style="fill:#fff;opacity:0.4"></polygon><polygon points="338.43 258 338.13 260.42 263.99 260.42 264.29 258 338.43 258" style="fill:#407BFF"></polygon><polygon points="338.43 258 338.13 260.42 263.99 260.42 264.29 258 338.43 258" style="opacity:0.5"></polygon><polygon points="349.18 214.22 275.04 214.22 264.3 258 338.43 258 349.18 214.22" style="fill:#407BFF"></polygon><polygon points="349.18 214.22 275.04 214.22 264.3 258 338.43 258 349.18 214.22" style="opacity:0.5"></polygon></g><g id="freepik--Plant--inject-264"><path d="M377.81,249.39S366.9,230.58,382,215.61c0,0,3.95,2.58,3.89,6s-4.23,4.34-3.34,7.22,4.84,5.73,2.25,8.12.42,4.51.24,7.43S377.81,249.39,377.81,249.39Z" style="fill:#407BFF"></path><path d="M378.64,251.11s4.42-21.29-14.66-30.72c0,0-2.94,3.69-1.79,7s5.38,2.78,5.44,5.81-2.78,6.95.43,8.4,1,4.42,2.11,7.14S378.64,251.11,378.64,251.11Z" style="fill:#407BFF"></path><path d="M378.64,251.11s4.42-21.29-14.66-30.72c0,0-2.94,3.69-1.79,7s5.38,2.78,5.44,5.81-2.78,6.95.43,8.4,1,4.42,2.11,7.14S378.64,251.11,378.64,251.11Z" style="opacity:0.5"></path><path d="M361.92,246.39s.37,14,14.28,14,14.27-14,14.27-14Z" style="fill:#407BFF"></path><path d="M361.92,246.39s.37,14,14.28,14,14.27-14,14.27-14Z" style="opacity:0.5"></path></g><g id="freepik--Graphics--inject-264"><polygon points="287.15 154.66 275.27 139.31 263.39 154.66 268.98 154.66 268.98 174.53 281.56 174.53 281.56 154.66 287.15 154.66" style="fill:#407BFF"></polygon><path d="M322,172.71a28,28,0,0,1,28-28V152a20.69,20.69,0,0,0-20.7,20.69Z" style="fill:#407BFF"></path><path d="M322,172.71h7.3a20.7,20.7,0,0,0,20.7,20.7,20.48,20.48,0,0,0,10.34-2.78L364,197a28,28,0,0,1-42-24.25Z" style="fill:#407BFF"></path><path d="M322,172.71h7.3a20.7,20.7,0,0,0,20.7,20.7,20.48,20.48,0,0,0,10.34-2.78L364,197a28,28,0,0,1-42-24.25Z" style="fill:#fff;opacity:0.5"></path><path d="M350,152v-7.31A28,28,0,0,1,364,197l-3.65-6.33A20.69,20.69,0,0,0,350,152Z" style="fill:#407BFF"></path><path d="M350,152v-7.31A28,28,0,0,1,364,197l-3.65-6.33A20.69,20.69,0,0,0,350,152Z" style="opacity:0.7000000000000001"></path><path d="M323.71,104H298.2a3.43,3.43,0,0,0-3.43,3.43V154.6A3.43,3.43,0,0,0,298.2,158h32.65a3.43,3.43,0,0,0,3.42-3.43v-40Z" style="fill:#263238"></path><path d="M322.21,153.31H301a1.5,1.5,0,0,1-1.5-1.5h0a1.5,1.5,0,0,1,1.5-1.49h21.22a1.5,1.5,0,0,1,1.5,1.49h0A1.51,1.51,0,0,1,322.21,153.31Z" style="fill:#407BFF"></path><path d="M312.21,111.73H301a1.5,1.5,0,0,1-1.5-1.49h0a1.5,1.5,0,0,1,1.5-1.5h11.22a1.5,1.5,0,0,1,1.5,1.5h0A1.5,1.5,0,0,1,312.21,111.73Z" style="fill:#407BFF"></path><path d="M319.54,117.67H301a1.5,1.5,0,0,1-1.5-1.49h0a1.5,1.5,0,0,1,1.5-1.5h18.55a1.5,1.5,0,0,1,1.49,1.5h0A1.49,1.49,0,0,1,319.54,117.67Z" style="fill:#407BFF"></path><path d="M328.06,123.61H301a1.5,1.5,0,0,1-1.5-1.49h0a1.5,1.5,0,0,1,1.5-1.5h27.07a1.5,1.5,0,0,1,1.5,1.5h0A1.5,1.5,0,0,1,328.06,123.61Z" style="fill:#407BFF"></path><path d="M328.06,129.55H312.32a1.5,1.5,0,0,1-1.5-1.49h0a1.5,1.5,0,0,1,1.5-1.5h15.74a1.5,1.5,0,0,1,1.5,1.5h0A1.5,1.5,0,0,1,328.06,129.55Z" style="fill:#407BFF"></path><path d="M305.1,129.55H301a1.5,1.5,0,0,1-1.5-1.49h0a1.5,1.5,0,0,1,1.5-1.5h4.11a1.5,1.5,0,0,1,1.5,1.5h0A1.5,1.5,0,0,1,305.1,129.55Z" style="fill:#407BFF"></path><path d="M328.06,135.49H301a1.5,1.5,0,0,1-1.5-1.5h0a1.5,1.5,0,0,1,1.5-1.49h27.07a1.5,1.5,0,0,1,1.5,1.49h0A1.5,1.5,0,0,1,328.06,135.49Z" style="fill:#407BFF"></path><path d="M317.61,141.43H301a1.5,1.5,0,0,1-1.5-1.5h0a1.5,1.5,0,0,1,1.5-1.49h16.62a1.5,1.5,0,0,1,1.5,1.49h0A1.5,1.5,0,0,1,317.61,141.43Z" style="fill:#407BFF"></path><path d="M328.06,141.43h-4.44a1.5,1.5,0,0,1-1.49-1.5h0a1.49,1.49,0,0,1,1.49-1.49h4.44a1.5,1.5,0,0,1,1.5,1.49h0A1.5,1.5,0,0,1,328.06,141.43Z" style="fill:#407BFF"></path><path d="M328.06,147.37H301a1.5,1.5,0,0,1-1.5-1.5h0a1.5,1.5,0,0,1,1.5-1.49h27.07a1.5,1.5,0,0,1,1.5,1.49h0A1.5,1.5,0,0,1,328.06,147.37Z" style="fill:#407BFF"></path><g style="opacity:0.5"><path d="M322.21,153.31H301a1.5,1.5,0,0,1-1.5-1.5h0a1.5,1.5,0,0,1,1.5-1.49h21.22a1.5,1.5,0,0,1,1.5,1.49h0A1.51,1.51,0,0,1,322.21,153.31Z" style="fill:#fff"></path></g><g style="opacity:0.5"><path d="M312.21,111.73H301a1.5,1.5,0,0,1-1.5-1.49h0a1.5,1.5,0,0,1,1.5-1.5h11.22a1.5,1.5,0,0,1,1.5,1.5h0A1.5,1.5,0,0,1,312.21,111.73Z" style="fill:#fff"></path></g><g style="opacity:0.5"><path d="M319.54,117.67H301a1.5,1.5,0,0,1-1.5-1.49h0a1.5,1.5,0,0,1,1.5-1.5h18.55a1.5,1.5,0,0,1,1.49,1.5h0A1.49,1.49,0,0,1,319.54,117.67Z" style="fill:#fff"></path></g><g style="opacity:0.5"><path d="M328.06,123.61H301a1.5,1.5,0,0,1-1.5-1.49h0a1.5,1.5,0,0,1,1.5-1.5h27.07a1.5,1.5,0,0,1,1.5,1.5h0A1.5,1.5,0,0,1,328.06,123.61Z" style="fill:#fff"></path></g><g style="opacity:0.5"><path d="M328.06,129.55H312.32a1.5,1.5,0,0,1-1.5-1.49h0a1.5,1.5,0,0,1,1.5-1.5h15.74a1.5,1.5,0,0,1,1.5,1.5h0A1.5,1.5,0,0,1,328.06,129.55Z" style="fill:#fff"></path></g><g style="opacity:0.5"><path d="M305.1,129.55H301a1.5,1.5,0,0,1-1.5-1.49h0a1.5,1.5,0,0,1,1.5-1.5h4.11a1.5,1.5,0,0,1,1.5,1.5h0A1.5,1.5,0,0,1,305.1,129.55Z" style="fill:#fff"></path></g><g style="opacity:0.5"><path d="M328.06,135.49H301a1.5,1.5,0,0,1-1.5-1.5h0a1.5,1.5,0,0,1,1.5-1.49h27.07a1.5,1.5,0,0,1,1.5,1.49h0A1.5,1.5,0,0,1,328.06,135.49Z" style="fill:#fff"></path></g><g style="opacity:0.5"><path d="M317.61,141.43H301a1.5,1.5,0,0,1-1.5-1.5h0a1.5,1.5,0,0,1,1.5-1.49h16.62a1.5,1.5,0,0,1,1.5,1.49h0A1.5,1.5,0,0,1,317.61,141.43Z" style="fill:#fff"></path></g><g style="opacity:0.5"><path d="M328.06,141.43h-4.44a1.5,1.5,0,0,1-1.49-1.5h0a1.49,1.49,0,0,1,1.49-1.49h4.44a1.5,1.5,0,0,1,1.5,1.49h0A1.5,1.5,0,0,1,328.06,141.43Z" style="fill:#fff"></path></g><g style="opacity:0.5"><path d="M328.06,147.37H301a1.5,1.5,0,0,1-1.5-1.5h0a1.5,1.5,0,0,1,1.5-1.49h27.07a1.5,1.5,0,0,1,1.5,1.49h0A1.5,1.5,0,0,1,328.06,147.37Z" style="fill:#fff"></path></g><path d="M323.71,104v7.14a3.42,3.42,0,0,0,3.43,3.43h7.13Z" style="fill:#407BFF"></path><path d="M323.71,104v7.14a3.42,3.42,0,0,0,3.43,3.43h7.13Z" style="fill:#fff;opacity:0.5"></path></g></svg>